<?xml version="1.0" encoding="UTF-8"?>
<svg width="155px" height="236px" viewBox="0 0 155 236" version="1.1" xmlns="http://www.w3.org/2000/svg" xmlns:xlink="http://www.w3.org/1999/xlink">
    <!-- Generator: Sketch 55.2 (78181) - https://sketchapp.com -->
    <title>logo/bw</title>
    <desc>Created with Sketch.</desc>
    <defs>
        <polygon id="path-1" points="0.000118320611 0.296981454 154.491813 0.296981454 154.491813 89.3132832 0.000118320611 89.3132832"></polygon>
    </defs>
    <g id="Donn" stroke="none" stroke-width="1" fill="none" fill-rule="evenodd">
        <g id="01---landing-page" transform="translate(-167.000000, -51.000000)">
            <g id="_header">
                <g id="heroimage">
                    <g id="logo/bw" transform="translate(167.000000, 51.000000)">
                        <g id="Group-8">
                            <g id="Group-3" transform="translate(0.000000, 146.262627)">
                                <mask id="mask-2" fill="white">
                                    <use xlink:href="#path-1"></use>
                                </mask>
                                <g id="Clip-2"></g>
                                <path d="M25.119584,57.7189163 L17.8097366,58.7924501 L17.8097366,13.9897133 L23.1962824,14.6539439 L25.119584,16.6673373 L25.119584,57.7189163 Z M40.0096412,16.9299539 L29.356645,5.87225965 L0.000118320611,0.296981454 L0.000118320611,72.3142446 L28.6277901,66.9371118 L40.0096412,55.769994 L40.0096412,16.9299539 Z M65.1758435,52.5156782 L58.6463206,53.4513975 L58.6463206,19.2148361 L63.2519504,19.8258336 L65.1758435,21.8333123 L65.1758435,52.5156782 Z M54.894374,10.6691519 L44.9246794,17.6923699 L44.9246794,55.0424752 L55.1316069,61.9592271 L68.2350229,59.4980842 L75.1342977,50.1497634 L75.1342977,22.3325203 L67.3026565,13.0001694 L54.894374,10.6691519 Z M89.3493359,38.2468461 L89.4871794,38.2486206 L96.6863969,57.7467158 L92.4954809,60.6893223 L109.497561,63.8921794 L109.497561,8.7805604 L91.8080382,12.0745053 L95.9959962,14.8461744 L95.9959962,34.6163499 L95.8404046,34.6204902 L88.322313,12.7576632 L79.7446603,14.3694426 L79.7446603,58.3032972 L89.3493359,60.1073073 L89.3493359,38.2468461 Z M130.389431,4.88389875 L136.191282,8.7805604 L136.191282,33.7669865 L135.983038,33.7723098 L125.412275,5.79181855 L114.603687,7.82177343 L114.603687,64.8509664 L127.320195,67.2399489 L127.320195,38.9305955 L127.503,38.9335529 L136.469336,63.8921794 L131.265595,67.8539038 L154.491931,72.4242596 L154.491931,0.296981454 L130.389431,4.88389875 Z M97.2673511,81.549593 C97.2673511,81.5844902 97.2496031,81.6560591 97.231855,81.7625253 C97.088687,82.4226155 96.4645458,82.8147659 95.8049084,82.6550667 C95.5020076,82.5657534 95.3594313,82.3871268 95.3594313,82.0836982 C95.3594313,82.048801 95.3410916,81.549593 95.3410916,80.7647008 C95.3410916,79.2854125 95.145271,78.8027659 96.1438969,78.9275679 C96.2148893,78.9459038 96.2864733,78.9642396 96.4113015,78.981984 C96.9999466,79.1239388 97.231855,79.3735429 97.2673511,79.9443198 L97.2673511,81.549593 Z M99.4965115,88.3066456 C99.0149466,86.4162797 98.6942977,85.2043398 98.5333817,84.6335629 C98.4268931,84.1881794 98.4795458,83.8137734 98.7297939,83.5103449 C99.0681908,83.0827058 99.246855,82.6550667 99.246855,82.2445805 C99.2646031,80.6038185 99.2646031,79.5521694 99.246855,79.0712972 C99.2107672,78.0728812 98.4978855,77.2347559 97.5347557,77.0034877 C96.9644504,76.8426055 96.4473893,76.7710366 96.0013206,76.7893724 L95.0559389,76.7893724 C94.0218168,76.7893724 93.5047557,76.7532922 93.3438397,76.9141744 C93.2550992,77.0034877 93.2196031,77.2702446 93.2196031,77.7162195 L93.2196031,82.4042797 L92.5061298,82.8147659 C92.4167977,82.8685905 92.3635534,82.9579038 92.3635534,83.0649614 C92.3635534,83.1897634 92.4167977,83.2613323 92.5061298,83.3317183 L93.2196031,83.7244602 L93.2196031,88.2528211 C93.2196031,88.8413424 93.1480191,89.2689815 93.629584,89.2867258 C94.0579046,89.3038787 94.485042,89.3038787 94.8956145,89.2867258 C95.3949275,89.2689815 95.3233435,88.8584952 95.3233435,88.32439 L95.3233435,85.810014 C95.3410916,85.2575729 95.306187,84.7761093 95.8232481,84.7051318 C96.3397176,84.6335629 96.4290496,85.0966907 96.5006336,85.435608 L96.8390305,86.879999 C97.0176947,87.5755779 97.1425229,88.0564501 97.1963588,88.32439 C97.3034389,88.823598 97.3566832,89.2334927 97.748916,89.2867258 C98.3369695,89.322806 98.8723702,89.322806 99.3533435,89.2689815 C99.5497557,89.2512371 99.6568359,89.0903549 99.6213397,88.9123198 C99.6035916,88.7520291 99.5680954,88.5379138 99.4965115,88.3066456 L99.4965115,88.3066456 Z M80.6965496,87.1828361 L78.9489542,87.1828361 C78.3603092,87.1656832 78.1999847,86.9864652 78.1644885,86.4162797 C78.1467405,85.8638386 78.1467405,85.3823749 78.181645,84.9547358 C78.2177328,84.1881794 78.3963969,84.0988662 79.0737824,84.0988662 C79.5908435,84.0988662 80.0008244,84.0988662 80.268229,84.0805303 C80.5178855,84.062786 80.6610534,83.937984 80.6610534,83.6889714 C80.6965496,83.3133825 80.6965496,82.9395679 80.6788015,82.5657534 C80.6610534,82.1381143 80.5539733,82.0133123 80.1262443,82.0133123 C80.0008244,81.9949764 79.7872557,81.9949764 79.5015115,81.9949764 C78.9489542,81.9949764 78.5567214,82.0133123 78.3425611,81.8169414 C78.253229,81.7092922 78.181645,81.5318486 78.181645,81.299989 C78.1467405,80.7286206 78.1467405,80.1406907 78.1644885,79.5344251 C78.1999847,78.981984 78.3603092,78.8027659 78.9489542,78.785613 L80.7148893,78.785613 C81.2313588,78.785613 81.6058435,78.8211018 81.6413397,78.3934627 C81.6774275,77.9835679 81.6951756,77.091618 81.5348511,76.9313273 C81.4455191,76.8597584 81.2136107,76.8065253 80.8036298,76.8065253 L76.9517023,76.8065253 C76.0779046,76.8065253 76.0601565,76.8426055 76.0601565,77.7339639 L76.0601565,82.3871268 L75.3466832,82.7964301 C75.2579427,82.8508461 75.2041069,82.9395679 75.2041069,83.0460341 C75.2041069,83.172019 75.2579427,83.2429965 75.3466832,83.2968211 L76.0601565,83.7067158 L76.0601565,88.1102747 C76.0601565,88.7697734 76.0424084,89.0022246 76.2027328,89.1441794 C76.3630573,89.2867258 76.6665496,89.2867258 76.9162061,89.2867258 L80.7858817,89.2867258 C81.1603664,89.2867258 81.5880954,89.322806 81.6235916,88.8951669 C81.6774275,88.4657534 81.6774275,88.0203699 81.6413397,87.5578336 C81.5880954,87.1479388 81.2313588,87.2011719 80.6965496,87.1828361 L80.6965496,87.1828361 Z M61.8788397,81.549593 C61.8788397,81.5844902 61.8605,81.6560591 61.8427519,81.7625253 C61.7001756,82.4226155 61.0760344,82.8147659 60.4163969,82.6550667 C60.1129046,82.5657534 59.9703282,82.3871268 59.9703282,82.0836982 C59.9703282,82.048801 59.9525802,81.549593 59.9525802,80.7647008 C59.9525802,79.2854125 59.7561679,78.8027659 60.7553855,78.9275679 C60.8263779,78.9459038 60.8979618,78.9642396 61.0227901,78.981984 C61.6114351,79.1239388 61.8427519,79.3735429 61.8788397,79.9443198 L61.8788397,81.549593 Z M64.108,88.3066456 C63.6264351,86.4162797 63.3051947,85.2043398 63.1442786,84.6335629 C63.0377901,84.1881794 63.0910344,83.8137734 63.3406908,83.5103449 C63.6796794,83.0827058 63.8583435,82.6550667 63.8583435,82.2445805 C63.8760916,80.6038185 63.8760916,79.5521694 63.8583435,79.0712972 C63.8222557,78.0728812 63.1087824,77.2347559 62.1462443,77.0034877 C61.5753473,76.8426055 61.0582863,76.7710366 60.6122176,76.7893724 L59.6674275,76.7893724 C58.6333053,76.7893724 58.1162443,76.7532922 57.9553282,76.9141744 C57.8665878,77.0034877 57.8305,77.2702446 57.8305,77.7162195 L57.8305,82.4042797 L57.1170267,82.8147659 C57.0282863,82.8685905 56.9744504,82.9579038 56.9744504,83.0649614 C56.9744504,83.1897634 57.0282863,83.2613323 57.1170267,83.3317183 L57.8305,83.7244602 L57.8305,88.2528211 C57.8305,88.8413424 57.7595076,89.2689815 58.2404809,89.2867258 C58.6688015,89.3038787 59.0965305,89.3038787 59.5065115,89.2867258 C60.0058244,89.2689815 59.9354237,88.8584952 59.9354237,88.32439 L59.9354237,85.810014 C59.9525802,85.2575729 59.917084,84.7761093 60.434145,84.7051318 C60.9512061,84.6335629 61.0405382,85.0966907 61.1115305,85.435608 L61.4505191,86.879999 C61.6291832,87.5755779 61.7540115,88.0564501 61.8072557,88.32439 C61.9143359,88.823598 61.9675802,89.2334927 62.359813,89.2867258 C62.948458,89.322806 63.4832672,89.322806 63.9648321,89.2689815 C64.1612443,89.2512371 64.2683244,89.0903549 64.2322366,88.9123198 C64.2144885,88.7520291 64.1789924,88.5379138 64.108,88.3066456 L64.108,88.3066456 Z M86.9225802,84.2763098 C86.9225802,84.2236682 86.9225802,84.1343549 86.9403282,84.0450416 C86.9935725,83.2968211 87.1006527,82.743197 87.2254809,82.4042797 C87.2970649,82.2794777 87.4928855,82.2079088 87.5999656,82.4042797 C87.6538015,82.5119288 87.6892977,82.6006506 87.7070458,82.6722195 C87.7070458,82.7248612 87.903458,83.6712271 87.9389542,83.9918085 C87.9567023,84.1515078 87.9567023,84.2591569 87.9567023,84.2952371 C87.9212061,84.5265053 86.9225802,84.5442496 86.9225802,84.2763098 L86.9225802,84.2763098 Z M89.990042,83.6528912 L90.5964351,83.2968211 C90.6851756,83.2429965 90.7384198,83.172019 90.7384198,83.0460341 C90.7384198,82.9395679 90.6851756,82.8508461 90.5964351,82.7964301 L89.757542,82.3155579 C89.7397939,82.1730115 89.4723893,80.6038185 88.9730763,77.6446506 C88.9198321,77.3595579 88.8488397,77.038385 88.7234198,76.9141744 C88.6518359,76.8597584 88.5098511,76.8248612 88.331187,76.8065253 L86.7084198,76.8065253 C86.1375229,76.8065253 85.9955382,76.9141744 85.888458,77.5026957 C85.7281336,78.4827759 85.4601374,80.0868662 85.0679046,82.2978135 L84.211855,82.7964301 C84.1047748,82.8508461 84.0515305,82.9395679 84.0515305,83.0460341 C84.0515305,83.172019 84.1047748,83.2429965 84.211855,83.2968211 L84.8359962,83.6712271 C84.8359962,83.6889714 84.8182481,83.7422045 84.8182481,83.7960291 C84.7111679,84.4200391 84.4615115,85.9354075 84.0331908,88.3598787 C83.9621985,88.8768311 83.8373702,89.2512371 84.3366832,89.2689815 C84.7111679,89.2867258 85.1743931,89.2867258 85.7281336,89.2689815 C85.9777901,89.2689815 86.1197748,89.1441794 86.1736107,88.8768311 C86.316187,88.0564501 86.4055191,87.5755779 86.4232672,87.4318486 C86.5303473,86.5233373 86.6729237,86.4878486 87.5999656,86.4878486 C87.5999656,86.4878486 87.6538015,86.4878486 87.7431336,86.505593 C88.3666832,86.5233373 88.402771,87.379207 88.4205191,87.5578336 C88.4560153,87.6997885 88.4737634,87.9139038 88.5098511,88.1818436 C88.5808435,88.7520291 88.5985916,89.0193774 88.7595076,89.1619238 C88.8305,89.2334927 88.9375802,89.2689815 89.1162443,89.2867258 C89.258229,89.2867258 90.5248511,89.3405504 90.6851756,89.1790767 C90.8277519,89.0548662 90.8455,88.7342847 90.7567595,88.2173323 C90.7384198,88.073603 90.4710153,86.5594175 89.990042,83.6528912 L89.990042,83.6528912 Z M70.8150038,86.5943148 C70.6008435,86.9864652 70.2263588,87.1656832 69.6738015,87.1479388 C69.0496603,87.1112672 69.1389924,86.8439188 69.1389924,85.5255128 C69.1389924,84.3129815 69.0674084,84.0805303 69.5489733,83.8309263 C70.0482863,83.5996581 70.7440115,84.0095529 70.9398321,84.561994 C71.2078282,85.2753173 71.1539924,85.9525604 70.8150038,86.5943148 L70.8150038,86.5943148 Z M69.1567405,79.4273674 C69.2283244,78.981984 69.4418931,78.8388461 69.9057099,78.8749263 C70.3872748,78.910415 70.6907672,79.1783549 70.8327519,79.6237383 L70.9398321,80.1584351 C70.9398321,80.5505855 70.8510916,80.9249915 70.6724275,81.2455729 C70.5653473,81.424791 70.4050229,81.549593 70.1737061,81.6199789 C68.9248321,82.0310566 69.0319122,80.3015729 69.1567405,79.4273674 L69.1567405,79.4273674 Z M72.5625992,82.2794777 C73.6505573,80.8362697 73.2760725,78.4295429 72.1171221,77.4311268 C71.5462252,76.9496632 70.8688397,76.7178035 70.0305382,76.7349564 C69.7453855,76.7532922 69.3709008,76.7532922 68.907084,76.7532922 C67.5517214,76.7349564 67.1594885,76.7000591 66.981416,76.8786857 C66.9098321,76.9496632 66.8743359,77.2170115 66.8743359,77.6446506 L66.8743359,82.3516381 L66.1608626,82.7615328 C66.0537824,82.8331018 66.0182863,82.9040792 66.0182863,83.0288812 C66.0182863,83.1365303 66.0537824,83.2075078 66.1608626,83.2790767 L66.8743359,83.6889714 L66.8743359,88.1451719 C66.8743359,88.7342847 66.8743359,89.0022246 66.9991641,89.1441794 C67.0879046,89.2334927 67.2310725,89.2867258 67.4268931,89.2867258 C70.8150038,89.322806 71.6178092,89.4830967 72.6519313,88.2528211 C73.1334962,87.6826356 73.3654046,87.0586256 73.3470649,86.3447108 C73.3470649,85.9354075 73.3470649,85.5958987 73.3654046,85.3646306 C73.3831527,84.4720892 73.1334962,83.7067158 72.5980954,83.1004501 C72.3129427,82.7615328 72.3129427,82.6189865 72.5625992,82.2794777 L72.5625992,82.2794777 Z M104.421015,82.3693825 L104.421015,77.8232772 C104.421015,77.2170115 104.492008,76.8248612 104.010443,76.7710366 C103.671454,76.7532922 102.601836,76.7178035 102.423763,76.8964301 C102.352179,76.9674075 102.316683,77.2347559 102.316683,77.662395 L102.316683,82.3693825 L101.60321,82.7792772 C101.49613,82.8331018 101.442294,82.9212321 101.442294,83.0288812 C101.442294,83.1542747 101.49613,83.2252521 101.60321,83.2790767 L102.316683,83.6889714 L102.316683,88.2889013 C102.316683,88.7875178 102.262847,89.2334927 102.744412,89.2689815 C102.923076,89.2867258 103.172733,89.2867258 103.51113,89.2867258 C104.385519,89.2867258 104.421015,89.2689815 104.421015,88.3776231 L104.421015,83.6889714 L105.133897,83.2790767 C105.223229,83.2252521 105.277065,83.1542747 105.277065,83.0288812 C105.277065,82.9212321 105.223229,82.8331018 105.133897,82.7792772 L104.421015,82.3693825 Z M43.8450038,86.5943148 C43.6314351,86.9864652 43.2569504,87.1656832 42.7038015,87.1479388 C42.0802519,87.1112672 42.1689924,86.8439188 42.1689924,85.5255128 C42.1689924,84.3129815 42.0974084,84.0805303 42.5789733,83.8309263 C43.0788779,83.5996581 43.7740115,84.0095529 43.9704237,84.561994 C44.2378282,85.2753173 44.1839924,85.9525604 43.8450038,86.5943148 L43.8450038,86.5943148 Z M42.1867405,79.4273674 C42.2583244,78.981984 42.4718931,78.8388461 42.9357099,78.8749263 C43.4172748,78.910415 43.7207672,79.1783549 43.8633435,79.6237383 L43.9704237,80.1584351 C43.9704237,80.5505855 43.8810916,80.9249915 43.7030191,81.2455729 C43.5953473,81.424791 43.4350229,81.549593 43.2037061,81.6199789 C41.9554237,82.0310566 42.0625038,80.3015729 42.1867405,79.4273674 L42.1867405,79.4273674 Z M45.5925992,82.2794777 C46.6805573,80.8362697 46.3066641,78.4295429 45.1471221,77.4311268 C44.5768168,76.9496632 43.8988397,76.7178035 43.0605382,76.7349564 C42.7753855,76.7532922 42.4009008,76.7532922 41.937084,76.7532922 C40.582313,76.7349564 40.1894885,76.7000591 40.011416,76.8786857 C39.9398321,76.9496632 39.9043359,77.2170115 39.9043359,77.6446506 L39.9043359,82.3516381 L39.1914542,82.7615328 C39.0837824,82.8331018 39.0482863,82.9040792 39.0482863,83.0288812 C39.0482863,83.1365303 39.0837824,83.2075078 39.1914542,83.2790767 L39.9043359,83.6889714 L39.9043359,88.1451719 C39.9043359,88.7342847 39.9043359,89.0022246 40.0291641,89.1441794 C40.1184962,89.2334927 40.2610725,89.2867258 40.4574847,89.2867258 C43.8450038,89.322806 44.6478092,89.4830967 45.6819313,88.2528211 C46.1634962,87.6826356 46.3954046,87.0586256 46.3776565,86.3447108 C46.3776565,85.9354075 46.3776565,85.5958987 46.3954046,85.3646306 C46.4131527,84.4720892 46.1634962,83.7067158 45.628687,83.1004501 C45.3429427,82.7615328 45.3429427,82.6189865 45.5925992,82.2794777 L45.5925992,82.2794777 Z M110.574279,84.2763098 C110.574279,84.2236682 110.574279,84.1343549 110.592027,84.0450416 C110.645271,83.2968211 110.752351,82.743197 110.877179,82.4042797 C110.948763,82.2794777 111.144584,82.2079088 111.251664,82.4042797 C111.3055,82.5119288 111.340996,82.6006506 111.358744,82.6722195 C111.358744,82.7248612 111.555156,83.6712271 111.590653,83.9918085 C111.608401,84.1515078 111.608401,84.2591569 111.608401,84.2952371 C111.572905,84.5265053 110.574279,84.5442496 110.574279,84.2763098 L110.574279,84.2763098 Z M113.64174,83.6528912 L114.247542,83.2968211 C114.336874,83.2429965 114.390118,83.172019 114.390118,83.0460341 C114.390118,82.9395679 114.336874,82.8508461 114.247542,82.7964301 L113.40924,82.3155579 C113.391492,82.1730115 113.124088,80.6038185 112.624775,77.6446506 C112.570939,77.3595579 112.499947,77.038385 112.375118,76.9141744 C112.303534,76.8597584 112.16155,76.8248612 111.982885,76.8065253 L110.360118,76.8065253 C109.789221,76.8065253 109.647237,76.9141744 109.540156,77.5026957 C109.379832,78.4827759 109.111836,80.0868662 108.719603,82.2978135 L107.863553,82.7964301 C107.756473,82.8508461 107.703229,82.9395679 107.703229,83.0460341 C107.703229,83.172019 107.756473,83.2429965 107.863553,83.2968211 L108.487695,83.6712271 C108.487695,83.6889714 108.469947,83.7422045 108.469947,83.7960291 C108.362866,84.4200391 108.11321,85.9354075 107.685481,88.3598787 C107.613897,88.8768311 107.489069,89.2512371 107.988382,89.2689815 C108.362866,89.2867258 108.826683,89.2867258 109.379832,89.2689815 C109.628897,89.2689815 109.771473,89.1441794 109.825309,88.8768311 C109.967885,88.0564501 110.057218,87.5755779 110.074966,87.4318486 C110.182046,86.5233373 110.324622,86.4878486 111.251664,86.4878486 C111.251664,86.4878486 111.3055,86.4878486 111.39424,86.505593 C112.018382,86.5233373 112.054469,87.379207 112.072218,87.5578336 C112.107714,87.6997885 112.125462,87.9139038 112.16155,88.1818436 C112.232542,88.7520291 112.25029,89.0193774 112.411206,89.1619238 C112.482198,89.2334927 112.589279,89.2689815 112.767943,89.2867258 C112.909927,89.2867258 114.175958,89.3405504 114.336874,89.1790767 C114.47945,89.0548662 114.497198,88.7342847 114.408458,88.2173323 C114.390118,88.073603 114.122714,86.5594175 113.64174,83.6528912 L113.64174,83.6528912 Z M51.5334771,84.2763098 C51.5334771,84.2236682 51.5334771,84.1343549 51.5512252,84.0450416 C51.6044695,83.2968211 51.7115496,82.743197 51.8363779,82.4042797 C51.9079618,82.2794777 52.1037824,82.2079088 52.2108626,82.4042797 C52.2646985,82.5119288 52.3001947,82.6006506 52.3179427,82.6722195 C52.3179427,82.7248612 52.514355,83.6712271 52.5498511,83.9918085 C52.5675992,84.1515078 52.5675992,84.2591569 52.5675992,84.2952371 C52.5321031,84.5265053 51.5334771,84.5442496 51.5334771,84.2763098 L51.5334771,84.2763098 Z M54.6009389,83.6528912 L55.2067405,83.2968211 C55.2960725,83.2429965 55.3493168,83.172019 55.3493168,83.0460341 C55.3493168,82.9395679 55.2960725,82.8508461 55.2067405,82.7964301 L54.3684389,82.3155579 C54.3506908,82.1730115 54.0832863,80.6038185 53.5839733,77.6446506 C53.5301374,77.3595579 53.459145,77.038385 53.3343168,76.9141744 C53.2627328,76.8597584 53.1201565,76.8248612 52.942084,76.8065253 L51.3193168,76.8065253 C50.7484198,76.8065253 50.6064351,76.9141744 50.4987634,77.5026957 C50.3384389,78.4827759 50.071626,80.0868662 49.6788015,82.2978135 L48.8227519,82.7964301 C48.7156718,82.8508461 48.6624275,82.9395679 48.6624275,83.0460341 C48.6624275,83.172019 48.7156718,83.2429965 48.8227519,83.2968211 L49.4468931,83.6712271 C49.4468931,83.6889714 49.429145,83.7422045 49.429145,83.7960291 C49.3220649,84.4200391 49.0724084,85.9354075 48.6440878,88.3598787 C48.5730954,88.8768311 48.4482672,89.2512371 48.9475802,89.2689815 C49.3220649,89.2867258 49.7858817,89.2867258 50.3384389,89.2689815 C50.5880954,89.2689815 50.7312634,89.1441794 50.7845076,88.8768311 C50.927084,88.0564501 51.0158244,87.5755779 51.0341641,87.4318486 C51.1412443,86.5233373 51.2838206,86.4878486 52.2108626,86.4878486 C52.2108626,86.4878486 52.2646985,86.4878486 52.3540305,86.505593 C52.9775802,86.5233373 53.0130763,87.379207 53.031416,87.5578336 C53.0669122,87.6997885 53.0846603,87.9139038 53.1201565,88.1818436 C53.1917405,88.7520291 53.2094885,89.0193774 53.369813,89.1619238 C53.4413969,89.2334927 53.5478855,89.2689815 53.7265496,89.2867258 C53.869126,89.2867258 55.1357481,89.3405504 55.2960725,89.1790767 C55.4386489,89.0548662 55.4563969,88.7342847 55.3670649,88.2173323 C55.3493168,88.073603 55.0819122,86.5594175 54.6009389,83.6528912 L54.6009389,83.6528912 Z" id="Fill-1" fill="#FEFEFE" mask="url(#mask-2)"></path>
                            </g>
                            <path d="M100.386933,100.487203 C93.1025248,107.168546 82.049605,106.296707 81.949624,106.289609 L48.0063989,106.276596 C47.7916469,106.276596 47.6177156,106.102702 47.6177156,105.887995 L47.6177156,100.040045 C57.7631164,95.878401 70.9777538,88.1714336 77.2061508,94.1749424 C77.2061508,94.1749424 77.2747767,94.2861404 77.3061317,94.254792 C77.3380782,94.2861404 77.4067042,94.1749424 77.4067042,94.1749424 C82.9979447,88.7853885 92.6576393,94.4446566 102.092525,98.6701805 C101.562448,99.3125263 100.999834,99.9247068 100.386933,100.487203 M114.681246,95.6418095 L114.681246,51.0017293 C114.681246,42.7713033 114.713193,9.11320802 77.3599676,9.11320802 C40.0061508,9.11320802 32.688021,10.1222707 29.5483836,0.0369674185 C29.3448721,-0.581719298 26.7530592,6.76030576 27.7422195,11.9020301 C28.3361889,16.4510927 31.0155592,19.8491378 34.6864561,22.3321654 C37.5190515,24.2473734 41.2165706,25.3019799 45.0986698,25.3019799 L77.3599676,25.3019799 C107.102219,25.3019799 107.102219,42.6601053 107.102219,51.0017293 L107.102219,81.9993534 C107.102219,84.9969674 106.792219,87.7254586 106.188193,90.1889674 C102.711342,87.6325965 99.226208,84.8467318 95.9759408,82.5754536 C85.4649294,75.2304712 78.2805019,78.7864411 77.3061317,86.0651779 C76.3317615,78.7864411 67.4186698,75.2304712 56.9076584,82.5754536 C53.9455019,84.6462206 50.7875248,87.1434436 47.6177156,89.5058095 L47.6177156,30.3644461 L45.0986698,30.3644461 C43.3522576,30.3644461 41.6484408,30.1390927 40.0386889,29.730381 L40.0386889,94.643985 C33.9581927,98.1579599 28.4166469,99.3432832 24.8516469,93.7751028 C24.8516469,93.7751028 27.9208836,103.936115 40.0386889,102.298311 L40.0386889,110.061469 C40.0386889,115.919474 40.0386889,125.72205 49.7025248,131.399654 C65.3060553,140.568757 77.2457882,146.559845 77.2457882,146.559845 C77.2457882,146.559845 88.3069905,140.932516 104.973632,131.425088 C113.577906,126.517589 114.681246,117.430702 114.681246,110.061469 L114.681246,102.46215 C125.276265,102.895704 128.031952,93.7751028 128.031952,93.7751028 C124.829013,98.7778296 120.031704,98.3324461 114.681246,95.6418095" id="Fill-4" fill="#FEFEFE"></path>
                            <polygon id="Fill-6" fill="#FEFEFE" points="65.0230324 54.2577013 62.4235286 46.2597263 59.8246164 54.2577013 51.4137958 54.2577013 58.2178225 59.2006887 55.6189103 67.1986637 62.4235286 62.2556762 69.2281469 67.1986637 66.6298263 59.2006887 73.4344447 54.2577013"></polygon>
                        </g>
                    </g>
                </g>
            </g>
        </g>
    </g>
</svg>