<svg xmlns="http://www.w3.org/2000/svg" xmlns:xlink="http://www.w3.org/1999/xlink" width="75px" height="80px" viewBox="0 0 75 80"><title>manicure-scissors</title><desc>Created with Sketch.</desc><g id="Donn" stroke="none" stroke-width="1" fill="none" fill-rule="evenodd"><g id="01---landing-page" transform="translate(-167.000000, -1965.000000)" fill="#F0D6C6" fill-rule="nonzero"><g id="_servi&#xE7;os" transform="translate(0.000000, 1627.000000)"><g id="item-copy" transform="translate(167.000000, 338.000000)"><g id="manicure-scissors"><path d="M74.0100828,63.5479184 C72.4863819,57.8436787 67.3145761,53.8598454 61.4333057,53.8598454 C60.2972951,53.8598454 59.1604172,54.0105202 58.0542423,54.3078679 C54.4087393,55.2876017 51.5396577,57.7356314 49.9054608,60.8469083 L44.8590689,41.9561925 L42.2616307,32.2333216 L44.160359,25.1256842 C48.8070917,7.73145043 47.1605788,1.93134265 46.9574534,1.32725175 C46.7270943,0.641733853 46.0977697,0.17057079 45.3768566,0.144472393 C44.6630554,0.11733006 43.9943547,0.542037976 43.714732,1.20893902 L37.2279016,16.6875504 L30.6808794,1.06557182 C30.3991752,0.393451102 29.7301275,-0.0296909108 29.0033167,0.00162716576 C28.2771996,0.0346851355 27.6483955,0.51820144 27.4284441,1.21311476 C27.2329511,1.83060284 25.6527012,7.74710947 30.2949238,25.1256842 L32.1936521,32.2333216 L29.5963874,41.9558445 C29.5963874,41.9558445 29.5963874,41.9561925 29.5962139,41.9561925 L24.549822,60.8467343 C22.9154516,57.7356314 20.0465435,55.2876017 16.4010405,54.3078679 C15.2948656,54.0105202 14.1579877,53.8598454 13.0221505,53.8598454 C7.14088019,53.8598454 1.96907439,57.8436787 0.445373498,63.5479184 C-1.41380525,70.507665 2.71860895,77.68716 9.65731107,79.5519775 C10.7633125,79.8491513 11.9001905,80 13.0362011,80 C13.036548,80 13.036548,80 13.0368949,80 C18.9174714,80 24.0892772,76.0161667 25.6131516,70.311927 C25.6136719,70.3101871 25.6140189,70.3082732 25.6145393,70.3065333 L32.6986036,43.788474 L37.2279016,42.3991693 L41.7570262,43.788474 L48.8424782,70.311927 C50.3663525,76.0161667 55.5381583,80 61.4192552,80 C62.5552658,80 63.6921437,79.8493253 64.7983187,79.5519775 C71.7366739,77.68716 75.8692615,70.507665 74.0100828,63.5479184 Z M22.2635768,69.4050947 L22.2618422,69.4113583 C22.2616688,69.4120543 22.2614953,69.4129242 22.2613218,69.4136202 C21.1423106,73.5982372 17.3491905,76.5203877 13.0362011,76.5203877 C12.2032307,76.5203877 11.3685257,76.4095565 10.5549832,76.1910259 C5.46401127,74.822774 2.43222118,69.5552475 3.79616245,64.4486611 C4.91413288,60.2630002 8.70794688,57.3398057 13.0218036,57.3398057 C13.8546005,57.3398057 14.6893055,57.4506369 15.5030215,57.6693415 C20.5920853,59.0367235 23.6235285,64.3005962 22.2635768,69.4050947 Z M33.757423,39.8246494 L33.9895168,38.9555728 L34.186571,39.6929395 L33.757423,39.8246494 Z M37.7397915,38.9172951 C37.7364957,38.9162512 37.7331999,38.9152073 37.7297307,38.9141633 L37.5559205,38.8607486 L33.6460596,24.2249415 C32.0600855,18.2880781 31.2406452,13.7737513 30.840986,10.4275888 L36.3682179,23.6161529 L40.6980332,39.8246494 L37.7397915,38.9172951 Z M40.8093966,24.2249415 L40.4659395,25.5108965 L39.6886508,22.6009252 C39.6683556,22.5245439 39.642683,22.4499025 39.612327,22.377001 L39.1096306,21.1773446 L43.5979913,10.4672584 C43.2078725,13.7887144 42.3960647,18.2854682 40.8093966,24.2249415 Z M63.9002996,76.1908519 C63.0867571,76.4093825 62.2520521,76.5202137 61.4190817,76.5202137 C57.1053985,76.5202137 53.3117579,73.5970192 52.1934406,69.4117063 C52.1934406,69.4115323 52.1934406,69.4115323 52.1934406,69.4113583 L52.1932671,69.4106624 C50.8298462,64.304424 53.8616363,59.0374194 58.9522613,57.6691675 C59.7658038,57.4506369 60.6006823,57.3396317 61.4334792,57.3396317 C65.7473359,57.3396317 69.5411499,60.2628262 70.6591204,64.4484871 C72.0230616,69.5548995 68.9910981,74.822426 63.9002996,76.1908519 Z" id="Shape"></path></g></g></g></g></g></svg>