<svg xmlns="http://www.w3.org/2000/svg" xmlns:xlink="http://www.w3.org/1999/xlink" width="94px" height="80px" viewBox="0 0 94 80"><title>straight-razor</title><desc>Created with Sketch.</desc><g id="Donn" stroke="none" stroke-width="1" fill="none" fill-rule="evenodd"><g id="01---landing-page" transform="translate(-451.000000, -1962.000000)" fill="#F0D6C6" fill-rule="nonzero"><g id="_servi&#xE7;os" transform="translate(0.000000, 1627.000000)"><g id="item" transform="translate(451.000000, 335.000000)"><g id="straight-razor"><path d="M93.6525474,8.34783956 C93.0185096,7.39244695 91.7334599,7.13437874 90.7822996,7.77061453 C87.1747214,10.1829913 82.3408813,9.34790582 79.7275192,5.95915024 C79.6184308,3.32839211 77.8504525,0.978558473 75.2014866,0.233651443 C73.6063524,-0.214747265 71.9311097,-0.0136119778 70.4866709,0.80131839 C69.044923,1.61458648 68.0045461,2.94149758 67.5557723,4.53873617 C67.5545303,4.54309964 67.5532883,4.5476709 67.5520464,4.55203437 L56.6015934,4.55203437 C56.5719926,4.5516188 56.5419777,4.55141102 56.5115489,4.55203437 L6.8019864,4.55203437 C3.05137193,4.55203437 0,7.61477624 0,11.3794138 L0,16.9931246 C0,18.1407178 0.926734423,19.0709685 2.06998978,19.0709685 L49.7048015,19.0709685 C52.9960852,19.0709685 56.2031204,16.5611408 57.0062764,13.3573134 L58.1714737,8.70772212 L66.3280614,8.70772212 C64.7010494,13.9492911 62.8974673,18.6815805 60.8543874,23.0795449 C58.0961261,29.0190616 54.7611655,34.5644113 50.9405854,39.5632881 C47.2232978,44.4391566 42.7790297,49.1610568 37.7317736,53.5974612 C35.8118581,55.2844627 33.8002421,56.9409198 31.6747766,58.5836632 C31.6389657,58.6092206 31.6037759,58.6362326 31.5690001,58.6642835 C31.5636181,58.6688548 31.5578221,58.673426 31.5524402,58.6779973 C28.6130547,60.9445094 25.4569413,63.1844251 22.0271752,65.4407557 C21.9470666,65.4937408 21.8419111,65.5654264 21.7613885,65.623606 C20.046195,66.8559752 18.9116336,68.6848934 18.5667733,70.7737498 C18.221706,72.8630219 18.7081536,74.961852 19.9354505,76.68293 C21.1625405,78.4054626 22.9845455,79.5449522 25.0659202,79.8913288 C25.502895,79.9640533 25.9404909,80 26.3747747,80 C28.0088247,80 29.5977488,79.4913438 30.9502801,78.5195362 L30.9956129,78.4873297 C37.3709744,73.9083851 42.8719723,69.3886591 47.8124168,64.6709146 C53.3724094,59.3668025 58.2517893,53.7329366 62.3137302,47.9280642 C66.5050455,41.9528086 70.0937868,35.3982501 72.9799735,28.4474467 C75.2321224,23.0294688 77.141688,17.2358167 78.7883649,10.8156947 C82.8639677,13.8898647 88.5988744,14.2233587 93.0768833,11.2289779 C94.0288716,10.5929499 94.2863783,9.30281661 93.6525474,8.34783956 Z M52.9913243,12.3431178 C52.6541229,13.6893528 51.0875547,14.9150729 49.7048015,14.9150729 L4.13997955,14.9150729 L4.13997955,11.3794138 C4.13997955,9.90622247 5.33436365,8.70772212 6.8019864,8.70772212 L53.9025338,8.70772212 L52.9913243,12.3431178 Z M28.5902848,75.1052232 L28.544745,75.1376375 C27.728755,75.7240051 26.734332,75.9565158 25.7434279,75.791535 C24.7535587,75.626762 23.886854,75.0848603 23.3024959,74.2645275 C22.7185518,73.4456493 22.4871269,72.4470375 22.6512771,71.4532048 C22.8154273,70.4593721 23.3552806,69.5889633 24.1714776,69.0028035 C24.1737546,69.0011412 24.1758246,68.999479 24.1781016,68.9978167 C24.2145334,68.9716358 24.2627642,68.9388059 24.298161,68.9157418 C27.2216075,66.9922818 29.954822,65.0777564 32.5296823,63.1480628 L37.0016882,68.676582 C34.3744572,70.8229947 31.58142,72.9569404 28.5902848,75.1052232 Z M75.5353759,6.70758961 C73.7725726,14.1793084 71.6870579,20.7669046 69.1593934,26.8477147 C66.3887121,33.520087 62.9467331,39.8074348 58.927434,45.537297 C55.0215702,51.1194246 50.3224865,56.5434283 44.9599709,61.6590799 C43.4252805,63.1245832 41.8334584,64.5715937 40.1753966,66.0073838 L35.8110301,60.6120544 C37.4194122,59.3298169 38.9652805,58.0361513 40.4587782,56.7239929 C45.7119982,52.1066082 50.3448423,47.1825338 54.2266942,42.0905696 C58.2290194,36.8541953 61.7212992,31.0484917 64.6066579,24.8355307 C67.2705277,19.1008894 69.5367525,12.837229 71.5344997,5.68612156 C71.5359487,5.68092695 71.5376047,5.67552455 71.5388467,5.67032995 C71.6874719,5.13757078 72.0339882,4.69499003 72.5144328,4.4238314 C72.9950845,4.15246499 73.5535677,4.08555842 74.0843131,4.2349554 C75.1530488,4.5356194 75.7899847,5.62274732 75.5353759,6.70758961 Z" id="Shape"></path></g></g></g></g></g></svg>